<?xml version="1.0" encoding="UTF-8" standalone="no"?>
<!-- Created with Inkscape (http://www.inkscape.org/) -->

<svg
   width="137.22444mm"
   height="136.80095mm"
   viewBox="0 0 137.22445 136.80095"
   version="1.1"
   id="svg1"
   xml:space="preserve"
   xmlns="http://www.w3.org/2000/svg"
   xmlns:svg="http://www.w3.org/2000/svg"><defs
     id="defs1" /><g
     id="layer1"
     transform="translate(-32.504285,-26.224421)"><g
       id="g7"
       style="fill:#ff0000"
       transform="matrix(1.001932,0,0,0.99312086,-0.32789232,0.4610339)"><circle
         style="fill:#f9f9f9;stroke-width:0.258924"
         id="path8"
         cx="101.24332"
         cy="94.698769"
         r="68.474449" /></g><path
       style="fill:#000000"
       d="M 96.122527,162.83393 C 88.01806,162.21685 79.849332,159.67476 72.821023,156.5097 65.809041,153.352 59.54135,149.18779 55.219338,145.05548 l 10.825724,0.0225 9.928706,-0.008 1.321749,0.66563 c 8.880872,4.47233 19.14607,6.65879 28.097763,5.98475 7.84783,-0.59092 15.13718,-2.62613 22.38972,-6.25126 12.58062,-6.28834 22.50595,-18.30532 27.70513,-33.54371 0.96579,-2.83066 1.93304,-6.89925 2.32926,-9.79769 0.42732,-3.125977 0.49734,-10.834727 0.12237,-13.471967 -1.36513,-9.60104 -4.6009,-18.16225 -9.83037,-26.00923 -5.02155,-7.53498 -13.1016,-14.66495 -21.27286,-18.77154 -7.41122,-3.72462 -13.39215,-5.40767 -21.22298,-5.9722 -16.347461,-1.17852 -33.348946,5.48958 -45.437684,18.56131 -3.58365,3.87505 -5.594847,7.62283 -8.054148,12.66291 l -1.3483,2.7632 -3.361644,0.11481 c -1.848904,0.0632 -5.0915,0.0516 -7.20577,-0.0256 l -3.844126,-0.1404 0.633881,-1.56435 c 1.709652,-4.219543 3.534258,-8.152982 6.135379,-12.190449 2.073177,-3.217989 4.75906,-6.60442 7.406258,-9.511378 3.800127,-4.173021 8.411554,-7.975615 12.92899,-10.985013 11.787679,-7.852644 26.7951,-11.83043 40.753634,-11.31968 7.63343,0.27931 12.65828,1.21005 19.94542,3.69443 8.5468,2.91382 17.20325,8.02824 23.46521,13.86374 6.56989,6.12248 10.76608,11.71783 14.7411,19.65633 2.40449,4.80201 3.56925,7.91966 5.00933,13.40825 1.77991,6.78376 2.50635,10.562359 2.31896,18.910829 -0.20256,9.023598 -1.35889,16.313258 -4.22932,23.651148 -3.33351,8.52168 -8.62443,16.39189 -16.10363,23.95407 -3.41763,3.45554 -8.75606,7.62573 -13.07796,10.21603 -2.7335,1.6383 -7.5664,4.03126 -10.45617,5.17726 -4.9164,1.9497 -12.14268,3.5884 -17.87755,4.05409 -2.90767,0.23611 -8.593593,0.22637 -11.832883,-0.0203 z m 7.568533,-3.26622 c 1.19051,-0.84772 1.48278,-2.73721 0.61246,-3.95947 -0.50258,-0.70581 -1.82341,-1.21838 -2.71417,-1.05329 -2.043563,0.37877 -2.915043,2.47392 -1.793613,4.31209 0.764783,1.25358 2.644093,1.59162 3.895323,0.70067 z m -22.520196,-4.93794 c 1.504467,-1.4054 1.340661,-3.41809 -0.365374,-4.48937 -0.943079,-0.59219 -2.493958,-0.44435 -3.284584,0.31312 -1.399291,1.3406 -1.094533,3.29266 0.691847,4.43147 0.807742,0.51494 2.268596,0.3889 2.958111,-0.25522 z m 44.793866,0.22426 c 1.74053,-1.06127 1.61014,-3.91008 -0.21869,-4.77791 -1.35701,-0.64395 -2.84559,-0.19274 -3.63486,1.10177 -0.71586,1.17411 -0.41246,2.53434 0.79121,3.54716 0.76546,0.64409 2.1237,0.7013 3.06234,0.12898 z m 18.4425,-11.90929 c 1.90448,-1.01832 1.86925,-3.84938 -0.0603,-4.8472 -1.90812,-0.98673 -4.04669,0.34233 -4.04841,2.51599 -6e-4,0.75874 0.10992,1.04805 0.62409,1.63366 0.34366,0.3914 0.80563,0.78486 1.02661,0.87436 0.6889,0.279 1.74805,0.20281 2.45803,-0.17681 z m 12.12369,-15.25238 c 1.28907,-0.68927 1.78068,-2.3725 1.08553,-3.71679 -0.9719,-1.87944 -3.97112,-1.86093 -4.86844,0.03 -0.62555,1.31825 -0.2233,2.73079 1.01782,3.57414 0.84693,0.57551 1.82487,0.61534 2.76509,0.11261 z m 5.91841,-12.80966 c 1.09511,-0.46662 1.57247,-1.1644 1.6642,-2.43264 0.073,-1.00895 0.0243,-1.19939 -0.45098,-1.76423 -1.04766,-1.24508 -2.51242,-1.55649 -3.74322,-0.79581 -0.83545,0.51633 -1.24069,1.28999 -1.23975,2.36682 9.3e-4,1.07311 0.55141,1.9813 1.50642,2.48531 0.88488,0.467 1.41931,0.50018 2.26333,0.14055 z m 3.17269,-17.557467 c 1.31067,-1.43018 0.99565,-3.37343 -0.68579,-4.23047 -1.84168,-0.93871 -3.90811,0.31103 -3.91013,2.36477 -0.002,1.69766 1.17035,2.7517 2.91575,2.62225 0.90908,-0.0674 1.14669,-0.17441 1.68017,-0.75655 z m -2.92665,-16.11804 c 1.14018,-0.54105 1.78693,-2.02823 1.43552,-3.30093 -0.10003,-0.36228 -0.48584,-0.92557 -0.85735,-1.25176 -1.25712,-1.10376 -2.8798,-0.98756 -3.99829,0.28633 -0.48516,0.55257 -0.59641,0.8519 -0.59641,1.60479 0,2.14985 2.12603,3.55867 4.01653,2.66157 z m -6.00754,-15.33925 c 0.82252,-0.50148 1.49087,-1.92742 1.33978,-2.85847 -0.23828,-1.46834 -1.66033,-2.55012 -3.09864,-2.3572 -2.13289,0.28608 -3.179,2.69782 -1.8842,4.34389 0.98489,1.25209 2.44584,1.6017 3.64306,0.87178 z M 50.627028,64.968853 c 1.240987,-1.18895 1.183674,-3.09719 -0.122957,-4.09381 -2.289858,-1.74656 -5.257248,0.61585 -4.137711,3.29412 0.694244,1.66085 2.924826,2.0795 4.260668,0.79969 z M 144.5325,50.993713 c 1.53087,-0.94613 1.77904,-3.00657 0.52036,-4.32036 -1.15879,-1.20952 -3.07938,-1.12436 -4.15815,0.18437 -1.05392,1.2786 -0.73652,3.06067 0.72161,4.05149 0.90791,0.61695 2.0033,0.64869 2.91618,0.0845 z m -82.027045,-0.46299 c 2.270824,-1.4879 1.23016,-4.9896 -1.483361,-4.99132 -2.294681,-0.002 -3.494314,2.41339 -2.142212,4.31224 0.81026,1.13791 2.455115,1.44599 3.625573,0.67908 z M 80.80549,39.672133 c 2.21211,-1.34874 1.644611,-4.81519 -0.832846,-5.08726 -1.224552,-0.13449 -1.723101,0.0171 -2.451078,0.74503 -1.010379,1.01038 -1.166011,1.88487 -0.552436,3.10413 0.767584,1.52529 2.466216,2.07349 3.83636,1.2381 z m 44.7656,0.10288 c 0.23536,-0.0674 0.69733,-0.42947 1.0266,-0.80449 0.51067,-0.58162 0.59868,-0.83796 0.59868,-1.74373 0,-0.90733 -0.0877,-1.16179 -0.60272,-1.74834 -1.09212,-1.24386 -2.85425,-1.33236 -3.98639,-0.20022 -0.34799,0.34799 -0.68991,0.91869 -0.75982,1.26823 -0.28357,1.41784 0.69875,3.00245 2.0578,3.3195 0.65017,0.15168 0.85906,0.14027 1.66585,-0.091 z m -21.77552,-5.03838 c 1.5767,-1.12271 1.41676,-3.79178 -0.27907,-4.65693 -2.54273,-1.2972 -5.111653,1.05702 -3.851403,3.52953 0.836153,1.64046 2.696743,2.14831 4.130473,1.1274 z M 97.018477,148.46818 c -4.175259,-0.4788 -9.653103,-1.72157 -12.554539,-2.84827 l -1.167057,-0.45319 10.266025,-0.0576 c 7.044014,-0.0395 10.499104,0.01 11.008664,0.15731 0.95473,0.2763 1.50439,1.14029 1.50538,2.36625 l 7.3e-4,0.90159 -1.0266,0.12331 c -1.60844,0.19319 -5.495583,0.10155 -8.032603,-0.18938 z m 11.918103,-1.36046 c -0.16271,-1.38446 -0.49458,-2.17327 -1.30046,-3.09112 -0.87022,-0.99113 -1.99056,-1.52235 -3.45923,-1.64024 -1.17997,-0.0947 -1.2279,-0.11922 -1.2279,-0.6276 v -0.52903 l 4.74193,-0.0911 c 2.60806,-0.0501 8.51878,-0.042 13.13493,0.0181 l 8.39301,0.10918 -1.87745,1.03962 c -4.68281,2.59306 -10.38418,4.53927 -16.47291,5.62316 -0.8604,0.15316 -1.61823,0.27859 -1.68409,0.27874 -0.0658,1.5e-4 -0.17737,-0.49019 -0.24783,-1.08965 z m -58.183654,-6.41183 c -2.624646,-2.7688 -5.665253,-6.78567 -5.834802,-7.17542 -0.0079,-0.0181 1.164549,-0.0256 1.932764,-0.0404 2.151694,-0.0414 6.973279,-0.0608 12.540818,-0.0446 l 13.73692,0.0399 v 4.47687 4.47687 l -9.995846,0.0506 -9.948032,0.0504 -0.641059,0.009 z m 52.000984,-4.7686 4.7e-4,-2.49318 h 2.59964 c 2.15455,0 2.68967,-0.0591 3.1255,-0.34492 0.87629,-0.57477 1.17088,-1.22689 1.27299,-2.81788 l 0.0948,-1.47741 5.79026,0.0985 c 5.05549,0.086 5.99864,0.15142 7.43241,0.51528 2.12975,0.54048 3.83627,1.45496 4.54761,2.43693 0.52444,0.72396 0.55641,0.88192 0.55528,2.74318 -8.4e-4,1.36958 -0.0908,2.14667 -0.29332,2.53507 -0.16066,0.30806 -0.29211,0.72603 -0.29211,0.92884 0,0.35741 -0.38126,0.36873 -12.417,0.36873 h -12.417 z m 28.15778,2.00432 c 0,-0.48524 0.013,-0.48886 1.75989,-0.48886 1.01197,0 1.75989,0.081 1.75989,0.19052 0,0.39026 -1.17832,0.7872 -2.33681,0.7872 -1.13147,0 -1.18297,-0.0213 -1.18297,-0.48886 z m -0.021,-2.29763 c -0.0116,-0.0269 -0.0899,-1.06083 -0.17411,-2.29764 -0.0842,-1.23681 -0.21699,-2.44673 -0.2951,-2.68872 -0.14192,-0.43969 -0.1405,-0.43997 2.20062,-0.43997 1.28845,0 2.81662,0.0878 3.39593,0.19517 1.36253,0.25247 3.05811,1.13102 3.44955,1.78736 0.30328,0.50851 0.28961,0.53724 -0.94649,1.98958 l -1.25422,1.47361 -3.17758,0.0147 c -1.74767,0.008 -3.18704,-0.007 -3.1986,-0.0341 z m 9.91139,-5.44916 c -0.073,-0.5503 -0.0943,-1.03896 -0.0474,-1.08591 0.047,-0.0469 0.58126,-0.0587 1.18736,-0.0261 l 1.10198,0.0593 -0.89943,1.0266 c -0.49469,0.56463 -0.96928,1.02661 -1.05463,1.02661 -0.0854,0 -0.21491,-0.45025 -0.28791,-1.00055 z m -99.04366,-1.5695 c -1.179044,-1.90979 -2.7212,-5.15326 -3.167091,-6.1169 l -0.328908,-0.71082 24.018389,0.0117 h 23.655906 v 4.49749 4.4975 l -21.265339,-0.002 -20.836982,-0.002 -0.779149,-4e-5 z m 87.48396,0.21781 -0.74537,-0.59235 -0.0312,-2.38969 c -0.027,-2.06777 -0.0983,-2.55432 -0.52982,-3.61183 l -0.49866,-1.22215 h 4.38938 4.38939 l -0.0613,0.63552 c -0.0539,0.55881 -0.13798,0.64291 -0.69679,0.69679 -0.60179,0.058 -0.63551,0.10312 -0.63551,0.84977 0,1.11242 0.42738,1.71139 1.98695,2.78471 1.42169,0.97842 1.78869,1.53243 1.68905,2.54977 -0.0774,0.79032 -0.3558,0.83997 -4.87126,0.86867 l -3.63955,0.0231 z m 11.27306,-1.75742 c -0.29452,-0.98304 -1.11681,-1.93106 -2.37556,-2.7388 l -0.97382,-0.6249 0.58814,-0.66985 c 0.4861,-0.55364 0.58814,-0.83949 0.58814,-1.64765 0,-1.21128 -0.39471,-1.84859 -1.33594,-2.15706 -0.3945,-0.12929 -0.91371,-0.36282 -1.1538,-0.51897 -0.46264,-0.30088 -1.22559,-1.41018 -1.22559,-1.78197 0,-0.16108 2.1297,-0.22135 7.82174,-0.22135 4.30195,0 7.82173,0.0519 7.82173,0.1153 0,0.47522 -3.27688,6.5251 -4.62429,8.53749 l -1.66931,2.49318 h -1.61306 -1.61306 z m -30.72243,-1.43118 c 0,-2.65147 -0.45567,-4.23495 -1.50916,-5.24444 -1.55217,-1.48732 -1.15088,-1.4296 -10.379413,-1.49309 l -8.271017,-0.0569 1.084798,-1.02583 c 0.878092,-0.83036 1.084798,-1.14554 1.084798,-1.65409 0,-0.62356 -0.0073,-0.62827 -0.977717,-0.62827 h -0.977716 v -1.26415 c 0,-1.0497 -0.03092,-1.08145 0.283146,-1.24954 0.251524,-0.13461 5.623178,-0.41946 15.846041,-0.41946 13.10946,0 15.45416,0.0421 15.92594,0.28608 0.61548,0.31828 0.79616,0.65274 0.79616,1.47381 0,1.03493 -0.15232,1.17326 -1.29195,1.17326 h -1.05457 v 1.45977 c 0,1.34825 0.0455,1.51163 0.59604,2.13862 0.32782,0.37337 1.32532,1.21552 2.21667,1.87145 2.13735,1.57285 2.50302,2.21351 2.42643,4.25105 l -0.0572,1.52285 -1.07549,0.38174 c -0.97078,0.34458 -1.73705,0.38854 -7.87062,0.45152 l -6.79513,0.0698 z M 36.620475,117.7164 c -0.298532,-0.81549 -1.142377,-3.43021 -1.536534,-4.7208 -0.394157,-1.29058 -0.635419,-2.55005 -0.679057,-2.68449 -0.01801,-0.0555 0.222425,-0.0992 0.855847,-0.13337 1.583045,-0.0854 5.620698,-0.11106 14.213287,-0.11106 h 15.148473 v 4.4975 4.4975 H 50.97296 37.62539 37.112954 Z m 88.327145,0.9321 c -0.32265,-0.21153 -0.70386,-0.45463 -0.84713,-0.54022 -0.20313,-0.12135 -0.12623,-0.36722 0.34922,-1.11657 0.68583,-1.08093 1.29828,-2.89358 1.49669,-4.42973 0.0731,-0.5658 0.15045,-1.16071 0.17194,-1.32204 0.0312,-0.23466 0.43618,-0.30445 2.02512,-0.34904 1.09233,-0.0306 1.98606,-0.0164 1.98606,0.0317 0,0.0481 0.12423,0.73311 0.27607,1.5223 0.46189,2.40062 1.34159,4.43997 2.49867,5.79253 0.30222,0.35328 0.54949,0.68326 0.54949,0.73329 0,0.05 -1.78189,0.0845 -3.95975,0.0767 -3.59413,-0.013 -4.01392,-0.0498 -4.54638,-0.39888 z m 9.61037,-4.1332 c 0.0823,-0.13444 0.44617,-0.63396 0.80865,-1.11005 0.87406,-1.14799 1.8585,-3.13072 2.3578,-4.74876 0.50646,-1.64121 1.00898,-5.17871 1.00898,-7.10266 v -1.45986 h 3.29877 c 3.01731,0 3.29742,0.0292 3.28302,0.3422 -0.0386,0.83951 0.32493,4.57822 0.56962,5.85797 0.53682,2.80761 1.86216,5.98007 3.1003,7.42118 0.3843,0.44729 0.69872,0.86527 0.69872,0.92883 0,0.0636 -3.43698,0.11557 -7.63773,0.11557 -6.05961,0 -7.60682,-0.0505 -7.48813,-0.24442 z m -40.12306,-6.15962 c 2.743117,-3.39268 5.032487,-9.651467 5.6685,-15.496807 0.23506,-2.16032 0.46722,-5.88981 0.49379,-7.93226 0.005,-0.39635 0.0333,-0.39885 1.52071,-0.13494 1.4966,0.26554 7.23491,0.22793 9.1484,-0.06 l 0.78893,-0.1187 0.0504,2.70524 c 0.17548,9.42525 2.28609,16.500317 6.33413,21.232967 l 0.96173,1.12438 H 106.38461 93.367721 Z m 27.09068,0.51819 c 0,-0.48533 1.33079,-1.51835 2.34342,-1.81907 0.57849,-0.1718 1.15197,-0.31235 1.2744,-0.31235 0.12243,0 -0.1489,-0.39894 -0.60296,-0.88652 -1.24288,-1.33465 -1.54938,-2.09131 -1.54187,-3.80652 0.005,-1.11997 0.10711,-1.65765 0.43242,-2.275037 0.6004,-1.13945 1.53816,-2.01366 2.76011,-2.57309 1.90286,-0.87116 4.36506,-0.37915 5.82787,1.16455 2.12035,2.237617 2.05234,5.412507 -0.16341,7.628257 -0.62658,0.62658 -0.68506,0.74836 -0.35937,0.74836 0.68168,0 2.39078,0.74939 2.96604,1.30053 1.09921,1.0531 1.14133,1.04599 -6.19041,1.04599 -4.77599,0 -6.74624,-0.0628 -6.74624,-0.2151 z m -87.782952,-1.73961 c -0.198799,-0.57458 -0.869216,-4.53989 -0.989304,-6.56724 l -0.132266,-2.232937 h 7.822401 7.557817 v 4.497497 4.4975 h -7.045698 c -5.461091,0 -7.147399,-0.005 -7.21295,-0.19482 z M 134.77085,98.021653 c -0.15476,-0.15476 0.0388,-0.67887 0.4103,-1.11106 0.16453,-0.1914 0.86643,-0.64923 1.55978,-1.01739 l 1.26062,-0.6694 4.07685,-0.0304 4.07685,-0.0304 0.89213,0.52282 c 1.26834,0.7433 2.24538,1.64917 2.24538,2.08183 0,0.35737 -0.26151,0.37083 -7.20251,0.37083 -3.96138,0 -7.25511,-0.0526 -7.3194,-0.11689 z M 32.530372,92.647516 c 0.121613,-2.64514 0.239197,-4.323669 0.398756,-5.573709 0.04908,-0.38452 0.513735,-0.375404 10.25194,-0.425224 l 9.904365,-0.0507 v 4.49929 4.49929 H 42.888179 32.525561 Z m 31.114402,-1.548533 v -4.4975 h 8.799451 8.050675 l 0.713696,0.619731 0.03508,3.877769 v 4.4975 h -8.79945 -8.799451 z m 73.313746,0.24801 c -0.60693,-1.90918 -0.66824,-2.31551 -0.65706,-4.35442 0.0104,-1.89145 0.095,-2.4973 0.53274,-3.8131 0.67199,-2.01997 1.70877,-3.77205 3.14982,-5.32292 1.06362,-1.14467 1.13549,-1.27871 0.92883,-1.73228 -0.35672,-0.78292 -0.26595,-1.24351 0.37047,-1.87994 0.49706,-0.49705 0.69732,-0.57473 1.22215,-0.47402 0.71934,0.13802 1.50762,0.9324 1.50762,1.51928 0,0.21939 -0.14828,0.64992 -0.32951,0.95672 -0.32943,0.55767 -0.32928,0.55807 0.54906,1.49708 1.82954,1.95593 3.09452,4.70306 3.60413,7.82702 0.3174,1.94563 0.1536,3.22882 -0.75563,5.91966 l -0.62769,1.85766 -4.41277,0.0525 -4.41276,0.0525 z M 33.487823,83.081703 c 0.165981,-1.24317 1.158895,-5.50506 1.589084,-6.974134 l 0.35304,-1.205613 1.163583,-0.03307 h 12.600583 13.284609 l -0.05249,4.54638 -0.05249,4.54639 H 48.045673 34.179207 33.353802 Z m 39.233504,0.79847 c -0.04486,-0.0448 -0.08156,-2.09068 -0.08156,-4.54638 v -4.46491 h 7.928394 7.928394 l 0.483952,0.48395 0.483952,0.48396 -0.05287,4.06243 -0.05287,4.06243 H 81.0808 c -4.552856,0 -8.314621,-0.0367 -8.359478,-0.0815 z m 20.059406,-2.66584 c 0,-0.35117 0.673306,-1.29141 1.413124,-1.97335 0.548266,-0.50537 1.33636,-0.95916 2.18982,-1.26089 1.09904,-0.38856 1.387,-0.58303 1.639,-1.10689 l 0.3057,-0.63552 7.932183,0.004 7.93217,0.004 0.29332,0.62218 c 0.2304,0.48874 0.5697,0.7341 1.58196,1.14403 0.70876,0.28702 1.53561,0.68367 1.83745,0.88144 0.62031,0.40644 1.66471,1.76411 1.66471,2.16404 0,0.21903 -2.28032,0.26397 -13.39471,0.26397 -7.367103,0 -13.394727,-0.0484 -13.394727,-0.10748 z m 5.173434,-8.39865 c -0.0312,-0.10755 -0.24805,-0.85551 -0.48194,-1.66212 -0.48324,-1.66654 -1.93552,-4.72183 -3.810874,-8.01728 -1.858699,-3.26617 -2.20924,-4.80358 -1.368832,-6.00343 0.542982,-0.77521 1.654351,-0.84059 14.289929,-0.84059 13.25208,0 13.05662,-0.017 13.68092,1.19026 0.65276,1.2623 0.13022,2.75682 -2.70415,7.73422 -1.29241,2.26961 -2.51945,5.14119 -2.91282,6.81676 l -0.22953,0.97772 h -8.20301 c -5.30051,0 -8.223063,-0.0692 -8.259693,-0.19554 z m 6.656943,-18.84625 c -2.66727,-1.22355 -3.28185,-4.29295 -1.24546,-6.2202 0.82816,-0.78378 1.49905,-1.03859 2.73447,-1.03859 2.85259,0 4.82982,3.02003 3.58465,5.47521 -0.59791,1.17893 -2.2741,2.15657 -3.68056,2.14668 -0.33601,-0.002 -0.96291,-0.16575 -1.3931,-0.3631 z M 59.940608,102.832 v -4.4975 h 8.799451 8.050676 l 0.713696,0.619732 0.03508,3.877768 v 4.4975 H 68.74006 59.940609 Z m 12.195381,11.732 v -4.4975 h 5.599903 8.050671 l 0.7137,0.61973 0.0351,3.87777 v 4.4975 h -8.79945 -5.599903 z m 25.473,11.733 v -4.4975 h 0.499818 8.050683 l 0.71369,0.61973 0.0351,3.87777 v 4.4975 H 98.108827 97.60901 Z m -15.707965,11.658 v -4.4975 h 8.799451 8.050678 l 0.71369,0.61973 0.0351,3.87777 v 4.4975 h -8.799447 -8.799451 z"
       id="path1" /></g></svg>
